<?xml version="1.0" standalone="no"?><!DOCTYPE svg PUBLIC "-//W3C//DTD SVG 1.1//EN" "http://www.w3.org/Graphics/SVG/1.1/DTD/svg11.dtd"><svg t="1619355446134" class="icon" viewBox="0 0 1024 1024" version="1.1" xmlns="http://www.w3.org/2000/svg" p-id="13384" xmlns:xlink="http://www.w3.org/1999/xlink" width="200" height="200"><defs><style type="text/css"></style></defs><path d="M552.96 471.04c0 12.288 8.192 20.48 20.48 20.48s20.48-8.192 20.48-20.48V266.24c0-102.4 81.92-184.32 184.32-184.32s184.32 81.92 184.32 184.32-81.92 184.32-184.32 184.32h-81.92c-12.288 0-20.48 8.192-20.48 20.48s8.192 20.48 20.48 20.48h81.92c124.928 0 225.28-100.352 225.28-225.28S903.168 40.96 778.24 40.96 552.96 141.312 552.96 266.24M778.24 552.96c124.928 0 225.28 100.352 225.28 225.28s-100.352 225.28-225.28 225.28-225.28-100.352-225.28-225.28v-163.84c0-32.768 26.624-61.44 61.44-61.44m0 40.96c-10.24 0-20.48 8.192-20.48 20.48v163.84c0 102.4 81.92 184.32 184.32 184.32s184.32-81.92 184.32-184.32-81.92-184.32-184.32-184.32M266.24 552.96h163.84c32.768 0 61.44 26.624 61.44 61.44v163.84c0 124.928-100.352 225.28-225.28 225.28S40.96 903.168 40.96 778.24s100.352-225.28 225.28-225.28m184.32 61.44c0-10.24-8.192-20.48-20.48-20.48h-163.84c-102.4 0-184.32 81.92-184.32 184.32s81.92 184.32 184.32 184.32 184.32-81.92 184.32-184.32M491.52 266.24v163.84c0 32.768-26.624 61.44-61.44 61.44h-163.84C141.312 491.52 40.96 391.168 40.96 266.24S141.312 40.96 266.24 40.96s225.28 100.352 225.28 225.28m-40.96 0c0-102.4-81.92-184.32-184.32-184.32s-184.32 81.92-184.32 184.32 81.92 184.32 184.32 184.32h163.84c10.24 0 20.48-8.192 20.48-20.48" fill="#d81e06" p-id="13385"></path></svg>