<?xml version="1.0" standalone="no"?><!DOCTYPE svg PUBLIC "-//W3C//DTD SVG 1.1//EN" "http://www.w3.org/Graphics/SVG/1.1/DTD/svg11.dtd"><svg t="1619355594510" class="icon" viewBox="0 0 1024 1024" version="1.1" xmlns="http://www.w3.org/2000/svg" p-id="34010" xmlns:xlink="http://www.w3.org/1999/xlink" width="200" height="200"><defs><style type="text/css"></style></defs><path d="M836.8 788.8H310c-52.4 0-89.5-46.7-95.1-91.9l-0.1-0.8L155.3 72c-1.9-9.9-10.4-16.9-20.5-16.9H27.5C12.3 55.1 0 42.7 0 27.5S12.3 0 27.5 0h107.3c18.1 0 35.6 6.5 49.3 18.2 13.7 11.7 22.9 28 25.7 45.8l0.1 0.8L225.7 230h751.4c14.3 0 27.7 6.4 36.6 17.6 8.9 11.2 12.2 25.6 9.1 39.6l-91.4 412c-10.9 55.3-47.2 89.6-94.6 89.6z m-480.4 90c24.8 0 45 20.2 45 45s-20.2 45-45 45-45-20.2-45-45c-0.1-24.7 20.2-45 45-45m0-55c-55.3 0-100.1 44.8-100.1 100.1S301.1 1024 356.4 1024s100.1-44.8 100.1-100.1-44.8-100.1-100.1-100.1z m426.6 55c24.8 0 45 20.2 45 45s-20.2 45-45 45-45-20.2-45-45c0-24.7 20.2-45 45-45m0-55c-55.3 0-100.1 44.8-100.1 100.1S727.7 1024 783 1024s100.1-44.8 100.1-100.1S838.3 823.8 783 823.8zM597.4 667.1V342.7c0-15.2-12.3-27.5-27.5-27.5s-27.5 12.3-27.5 27.5v324.4c0 15.2 12.3 27.5 27.5 27.5s27.5-12.3 27.5-27.5z m-137.7 27.2c15.2-0.8 26.8-13.7 26.1-28.9l-17-323.9c-0.8-15.2-13.8-26.8-28.9-26.1-15.2 0.8-26.8 13.7-26.1 28.9l17 323.9c0.8 14.7 12.9 26.1 27.5 26.1 0.4 0.1 0.9 0 1.4 0z m-113.6-0.4c15.1-1.3 26.4-14.7 25-29.8L342.8 341c-1.3-15.1-14.7-26.4-29.8-25-15.1 1.3-26.4 14.7-25 29.8l28.3 323.1c1.3 14.3 13.3 25.1 27.4 25.1 0.8 0 1.6-0.1 2.4-0.1z m367.2-25.1l28.3-323.1c1.3-15.1-9.9-28.5-25-29.8-15.1-1.3-28.5 9.9-29.8 25L658.4 664c-1.3 15.1 9.9 28.5 25 29.8 0.8 0.1 1.6 0.1 2.4 0.1 14.2 0.1 26.2-10.7 27.5-25.1z m115.8 0.6L885.4 350c2.6-15-7.4-29.3-22.3-31.9-15-2.6-29.3 7.4-31.9 22.3l-56.3 319.4c-2.6 15 7.4 29.3 22.3 31.9 1.6 0.3 3.2 0.4 4.8 0.4 13.1 0 24.7-9.4 27.1-22.7z" p-id="34011"></path></svg>